{
  "accessors": [
    {
      "bufferView": 1,
      "componentType": 5126,
      "count": 802,
      "max": [
        0.94479000568389893,
        1.4451099634170532,
        7.7440400123596191
      ],
      "min": [
        -0.8104100227355957,
        -0.52604001760482788,
        -0.0069599999114871025
      ],
      "type": "VEC3"
    },
    {
      "bufferView": 1,
      "byteOffset": 9624,
      "componentType": 5126,
      "count": 802,
      "max": [
        1,
        0.99990725517272949,
        0.99852240085601807
      ],
      "min": [
        -0.99744105339050293,
        -0.9999164342880249,
        -1
      ],
      "type": "VEC3"
    },
    {
      "bufferView": 0,
      "componentType": 5125,
      "count": 1122,
      "max": [
        801
      ],
      "min": [
        0
      ],
      "type": "SCALAR"
    },
    {
      "bufferView": 1,
      "byteOffset": 19248,
      "componentType": 5126,
      "count": 208,
      "max": [
        0.18132999539375305,
        0.89366000890731812,
        5.7353301048278809
      ],
      "min": [
        -0.63998997211456299,
        -0.17963999509811401,
        0.82159000635147095
      ],
      "type": "VEC3"
    },
    {
      "bufferView": 1,
      "byteOffset": 21744,
      "componentType": 5126,
      "count": 208,
      "max": [
        0.95298397541046143,
        0.93372130393981934,
        0.99968725442886353
      ],
      "min": [
        -0.94810491800308228,
        -0.93348026275634766,
        -0.9991070032119751
      ],
      "type": "VEC3"
    },
    {
      "bufferView": 0,
      "byteOffset": 4488,
      "componentType": 5125,
      "count": 300,
      "max": [
        207
      ],
      "min": [
        0
      ],
      "type": "SCALAR"
    },
    {
      "bufferView": 1,
      "byteOffset": 24240,
      "componentType": 5126,
      "count": 848,
      "max": [
        1.4668999910354614,
        0.58139997720718384,
        8.0409603118896484
      ],
      "min": [
        -0.72826999425888062,
        -1.2656699419021606,
        0.5855100154876709
      ],
      "type": "VEC3"
    },
    {
      "bufferView": 1,
      "byteOffset": 34416,
      "componentType": 5126,
      "count": 848,
      "max": [
        0.99963283538818359,
        1,
        0.99655371904373169
      ],
      "min": [
        -1,
        -0.99991095066070557,
        -0.99926596879959106
      ],
      "type": "VEC3"
    },
    {
      "bufferView": 0,
      "byteOffset": 5688,
      "componentType": 5125,
      "count": 1200,
      "max": [
        847
      ],
      "min": [
        0
      ],
      "type": "SCALAR"
    },
    {
      "bufferView": 1,
      "byteOffset": 44592,
      "componentType": 5126,
      "count": 802,
      "max": [
        0.94479000568389893,
        1.4451099634170532,
        7.7440400123596191
      ],
      "min": [
        -0.8104100227355957,
        -0.52604001760482788,
        -0.0069599999114871025
      ],
      "type": "VEC3"
    },
    {
      "bufferView": 1,
      "byteOffset": 54216,
      "componentType": 5126,
      "count": 802,
      "max": [
        1,
        0.99990725517272949,
        0.99852240085601807
      ],
      "min": [
        -0.99744105339050293,
        -0.9999164342880249,
        -1
      ],
      "type": "VEC3"
    },
    {
      "bufferView": 0,
      "byteOffset": 10488,
      "componentType": 5125,
      "count": 1122,
      "max": [
        801
      ],
      "min": [
        0
      ],
      "type": "SCALAR"
    },
    {
      "bufferView": 1,
      "byteOffset": 63840,
      "componentType": 5126,
      "count": 208,
      "max": [
        0.18132999539375305,
        0.89366000890731812,
        5.7353301048278809
      ],
      "min": [
        -0.63998997211456299,
        -0.17963999509811401,
        0.82159000635147095
      ],
      "type": "VEC3"
    },
    {
      "bufferView": 1,
      "byteOffset": 66336,
      "componentType": 5126,
      "count": 208,
      "max": [
        0.95298397541046143,
        0.93372130393981934,
        0.99968725442886353
      ],
      "min": [
        -0.94810491800308228,
        -0.93348026275634766,
        -0.9991070032119751
      ],
      "type": "VEC3"
    },
    {
      "bufferView": 0,
      "byteOffset": 14976,
      "componentType": 5125,
      "count": 300,
      "max": [
        207
      ],
      "min": [
        0
      ],
      "type": "SCALAR"
    },
    {
      "bufferView": 1,
      "byteOffset": 68832,
      "componentType": 5126,
      "count": 848,
      "max": [
        1.4668999910354614,
        0.64996999502182007,
        8.0409603118896484
      ],
      "min": [
        -0.72826999425888062,
        -1.2656699419021606,
        0.5855100154876709
      ],
      "type": "VEC3"
    },
    {
      "bufferView": 1,
      "byteOffset": 79008,
      "componentType": 5126,
      "count": 848,
      "max": [
        0.99963283538818359,
        1,
        0.99655371904373169
      ],
      "min": [
        -1,
        -0.99991095066070557,
        -0.99926596879959106
      ],
      "type": "VEC3"
    },
    {
      "bufferView": 0,
      "byteOffset": 16176,
      "componentType": 5125,
      "count": 1200,
      "max": [
        847
      ],
      "min": [
        0
      ],
      "type": "SCALAR"
    },
    {
      "bufferView": 1,
      "byteOffset": 89184,
      "componentType": 5126,
      "count": 5552,
      "max": [
        1.3340100049972534,
        1.5254700183868408,
        8.2128400802612305
      ],
      "min": [
        -1.0672500133514404,
        -1.1622300148010254,
        1.3024400472640991
      ],
      "type": "VEC3"
    },
    {
      "bufferView": 1,
      "byteOffset": 155808,
      "componentType": 5126,
      "count": 5552,
      "max": [
        0.99755501747131348,
        0.9954802393913269,
        0.9999421238899231
      ],
      "min": [
        -0.99845665693283081,
        -0.99984997510910034,
        -0.9999421238899231
      ],
      "type": "VEC3"
    },
    {
      "bufferView": 0,
      "byteOffset": 20976,
      "componentType": 5125,
      "count": 6246,
      "max": [
        5551
      ],
      "min": [
        0
      ],
      "type": "SCALAR"
    },
    {
      "bufferView": 1,
      "byteOffset": 222432,
      "componentType": 5126,
      "count": 7504,
      "max": [
        1.5676100254058838,
        1.5719499588012695,
        7.9847102165222168
      ],
      "min": [
        -1.0229899883270264,
        -1.4281200170516968,
        1.3189699649810791
      ],
      "type": "VEC3"
    },
    {
      "bufferView": 1,
      "byteOffset": 312480,
      "componentType": 5126,
      "count": 7504,
      "max": [
        0.9999164342880249,
        0.9997246265411377,
        0.99909168481826782
      ],
      "min": [
        -0.99910432100296021,
        -0.99974346160888672,
        -0.99976557493209839
      ],
      "type": "VEC3"
    },
    {
      "bufferView": 0,
      "byteOffset": 45960,
      "componentType": 5125,
      "count": 8442,
      "max": [
        7503
      ],
      "min": [
        0
      ],
      "type": "SCALAR"
    },
    {
      "bufferView": 1,
      "byteOffset": 402528,
      "componentType": 5126,
      "count": 802,
      "max": [
        0.94479000568389893,
        1.4451099634170532,
        7.7440400123596191
      ],
      "min": [
        -0.8104100227355957,
        -0.52604001760482788,
        -0.0069599999114871025
      ],
      "type": "VEC3"
    },
    {
      "bufferView": 1,
      "byteOffset": 412152,
      "componentType": 5126,
      "count": 802,
      "max": [
        1,
        0.99990725517272949,
        0.99852240085601807
      ],
      "min": [
        -0.99744105339050293,
        -0.9999164342880249,
        -1
      ],
      "type": "VEC3"
    },
    {
      "bufferView": 0,
      "byteOffset": 79728,
      "componentType": 5125,
      "count": 1122,
      "max": [
        801
      ],
      "min": [
        0
      ],
      "type": "SCALAR"
    },
    {
      "bufferView": 1,
      "byteOffset": 421776,
      "componentType": 5126,
      "count": 208,
      "max": [
        0.18132999539375305,
        0.89366000890731812,
        5.7353301048278809
      ],
      "min": [
        -0.63998997211456299,
        -0.17963999509811401,
        0.82159000635147095
      ],
      "type": "VEC3"
    },
    {
      "bufferView": 1,
      "byteOffset": 424272,
      "componentType": 5126,
      "count": 208,
      "max": [
        0.95298397541046143,
        0.93372130393981934,
        0.99968725442886353
      ],
      "min": [
        -0.94810491800308228,
        -0.93348026275634766,
        -0.9991070032119751
      ],
      "type": "VEC3"
    },
    {
      "bufferView": 0,
      "byteOffset": 84216,
      "componentType": 5125,
      "count": 300,
      "max": [
        207
      ],
      "min": [
        0
      ],
      "type": "SCALAR"
    },
    {
      "bufferView": 1,
      "byteOffset": 426768,
      "componentType": 5126,
      "count": 848,
      "max": [
        1.4668999910354614,
        0.58139997720718384,
        8.0409603118896484
      ],
      "min": [
        -0.72826999425888062,
        -1.2656699419021606,
        0.5855100154876709
      ],
      "type": "VEC3"
    },
    {
      "bufferView": 1,
      "byteOffset": 436944,
      "componentType": 5126,
      "count": 848,
      "max": [
        0.99963283538818359,
        1,
        0.99655371904373169
      ],
      "min": [
        -1,
        -0.99991095066070557,
        -0.99926596879959106
      ],
      "type": "VEC3"
    },
    {
      "bufferView": 0,
      "byteOffset": 85416,
      "componentType": 5125,
      "count": 1200,
      "max": [
        847
      ],
      "min": [
        0
      ],
      "type": "SCALAR"
    },
    {
      "bufferView": 1,
      "byteOffset": 447120,
      "componentType": 5126,
      "count": 1472,
      "max": [
        1.3340100049972534,
        1.5254700183868408,
        7.7516598701477051
      ],
      "min": [
        -0.78007000684738159,
        -1.1622300148010254,
        2.1143100261688232
      ],
      "type": "VEC3"
    },
    {
      "bufferView": 1,
      "byteOffset": 464784,
      "componentType": 5126,
      "count": 1472,
      "max": [
        0.99755501747131348,
        0.99460357427597046,
        0.99956834316253662
      ],
      "min": [
        -0.97706121206283569,
        -0.99875509738922119,
        -0.99947285652160645
      ],
      "type": "VEC3"
    },
    {
      "bufferView": 0,
      "byteOffset": 90216,
      "componentType": 5125,
      "count": 1656,
      "max": [
        1471
      ],
      "min": [
        0
      ],
      "type": "SCALAR"
    },
    {
      "bufferView": 1,
      "byteOffset": 482448,
      "componentType": 5126,
      "count": 2384,
      "max": [
        1.5676100254058838,
        1.5719499588012695,
        7.5796098709106445
      ],
      "min": [
        -0.79593998193740845,
        -1.4281200170516968,
        2.0829501152038574
      ],
      "type": "VEC3"
    },
    {
      "bufferView": 1,
      "byteOffset": 511056,
      "componentType": 5126,
      "count": 2384,
      "max": [
        0.99755489826202393,
        0.99846190214157104,
        0.99909144639968872
      ],
      "min": [
        -0.99910432100296021,
        -0.99921762943267822,
        -0.99750429391860962
      ],
      "type": "VEC3"
    },
    {
      "bufferView": 0,
      "byteOffset": 96840,
      "componentType": 5125,
      "count": 2682,
      "max": [
        2383
      ],
      "min": [
        0
      ],
      "type": "SCALAR"
    }
  ],
  "asset": {
    "extras": {
      "author": "Larolei Low Poly (https://sketchfab.com/strix567)",
      "license": "CC-BY-NC-4.0 (http://creativecommons.org/licenses/by-nc/4.0/)",
      "source": "https://sketchfab.com/3d-models/old-pine-tree-low-poly-8d92427b20ac41b19fc20f3d9fe2c367",
      "title": "Old Pine Tree (Low Poly)"
    },
    "generator": "Sketchfab-6.58.0",
    "version": "2.0"
  },
  "bufferViews": [
    {
      "buffer": 0,
      "byteLength": 107568,
      "byteOffset": 0,
      "name": "floatBufferViews",
      "target": 34963
    },
    {
      "buffer": 0,
      "byteLength": 539664,
      "byteOffset": 107568,
      "byteStride": 12,
      "name": "floatBufferViews",
      "target": 34962
    }
  ],
  "buffers": [
    {
      "byteLength": 647232,
      "uri": "scene.bin"
    }
  ],
  "materials": [
    {
      "doubleSided": true,
      "emissiveFactor": [
        0,
        0,
        0
      ],
      "name": "trunkColor01",
      "pbrMetallicRoughness": {
        "baseColorFactor": [
          0.053442067704231544,
          0.044126371206736126,
          0.039270392645454288,
          1
        ],
        "metallicFactor": 0,
        "roughnessFactor": 0.59999999999999998
      }
    },
    {
      "doubleSided": true,
      "emissiveFactor": [
        0,
        0,
        0
      ],
      "name": "trunkColor02",
      "pbrMetallicRoughness": {
        "baseColorFactor": [
          0.055980665325830348,
          0.043164581703611926,
          0.030143753143306862,
          1
        ],
        "metallicFactor": 0,
        "roughnessFactor": 0.59999999999999998
      }
    },
    {
      "doubleSided": true,
      "emissiveFactor": [
        0,
        0,
        0
      ],
      "name": "trunkColor03",
      "pbrMetallicRoughness": {
        "baseColorFactor": [
          0.029927751867886654,
          0.022838990730628228,
          0.016297979895740444,
          1
        ],
        "metallicFactor": 0,
        "roughnessFactor": 0.59999999999999998
      }
    },
    {
      "doubleSided": true,
      "emissiveFactor": [
        0,
        0,
        0
      ],
      "name": "pineTreeColor11",
      "pbrMetallicRoughness": {
        "baseColorFactor": [
          0.041345680376077901,
          0.11784551319249732,
          0.0335957710980739,
          1
        ],
        "metallicFactor": 0,
        "roughnessFactor": 0.59999999999999998
      }
    },
    {
      "doubleSided": true,
      "emissiveFactor": [
        0,
        0,
        0
      ],
      "name": "pineTreeColor12",
      "pbrMetallicRoughness": {
        "baseColorFactor": [
          0.020950109078736734,
          0.043971962391912367,
          0.017619426811030903,
          1
        ],
        "metallicFactor": 0,
        "roughnessFactor": 0.59999999999999998
      }
    },
    {
      "doubleSided": true,
      "emissiveFactor": [
        0,
        0,
        0
      ],
      "name": "trunkColor01.001",
      "pbrMetallicRoughness": {
        "baseColorFactor": [
          0.053442067704231544,
          0.044126371206736126,
          0.039270392645454288,
          1
        ],
        "metallicFactor": 0,
        "roughnessFactor": 0.59999999999999998
      }
    },
    {
      "doubleSided": true,
      "emissiveFactor": [
        0,
        0,
        0
      ],
      "name": "trunkColor02.001",
      "pbrMetallicRoughness": {
        "baseColorFactor": [
          0.055980665325830348,
          0.043164581703611926,
          0.030143753143306862,
          1
        ],
        "metallicFactor": 0,
        "roughnessFactor": 0.59999999999999998
      }
    },
    {
      "doubleSided": true,
      "emissiveFactor": [
        0,
        0,
        0
      ],
      "name": "trunkColor03.001",
      "pbrMetallicRoughness": {
        "baseColorFactor": [
          0.029927751867886654,
          0.022838990730628228,
          0.016297979895740444,
          1
        ],
        "metallicFactor": 0,
        "roughnessFactor": 0.59999999999999998
      }
    },
    {
      "doubleSided": true,
      "emissiveFactor": [
        0,
        0,
        0
      ],
      "name": "pineTreeColor11.001",
      "pbrMetallicRoughness": {
        "baseColorFactor": [
          0.050510192332539436,
          0.14396666067016378,
          0.041042470320684428,
          1
        ],
        "metallicFactor": 0,
        "roughnessFactor": 0.59999999999999998
      }
    },
    {
      "doubleSided": true,
      "emissiveFactor": [
        0,
        0,
        0
      ],
      "name": "pineTreeColor12.001",
      "pbrMetallicRoughness": {
        "baseColorFactor": [
          0.020950109078736734,
          0.043971962391912367,
          0.017619426811030903,
          1
        ],
        "metallicFactor": 0,
        "roughnessFactor": 0.59999999999999998
      }
    },
    {
      "doubleSided": true,
      "emissiveFactor": [
        0,
        0,
        0
      ],
      "name": "trunkColor01.002",
      "pbrMetallicRoughness": {
        "baseColorFactor": [
          0.053442067704231544,
          0.044126371206736126,
          0.039270392645454288,
          1
        ],
        "metallicFactor": 0,
        "roughnessFactor": 0.59999999999999998
      }
    },
    {
      "doubleSided": true,
      "emissiveFactor": [
        0,
        0,
        0
      ],
      "name": "trunkColor02.002",
      "pbrMetallicRoughness": {
        "baseColorFactor": [
          0.055980665325830348,
          0.043164581703611926,
          0.030143753143306862,
          1
        ],
        "metallicFactor": 0,
        "roughnessFactor": 0.59999999999999998
      }
    },
    {
      "doubleSided": true,
      "emissiveFactor": [
        0,
        0,
        0
      ],
      "name": "trunkColor03.002",
      "pbrMetallicRoughness": {
        "baseColorFactor": [
          0.029927751867886654,
          0.022838990730628228,
          0.016297979895740444,
          1
        ],
        "metallicFactor": 0,
        "roughnessFactor": 0.59999999999999998
      }
    }
  ],
  "meshes": [
    {
      "name": "Cylinder.008_0",
      "primitives": [
        {
          "attributes": {
            "NORMAL": 1,
            "POSITION": 0
          },
          "indices": 2,
          "material": 10,
          "mode": 4
        }
      ]
    },
    {
      "name": "Cylinder.008_1",
      "primitives": [
        {
          "attributes": {
            "NORMAL": 4,
            "POSITION": 3
          },
          "indices": 5,
          "material": 11,
          "mode": 4
        }
      ]
    },
    {
      "name": "Cylinder.008_2",
      "primitives": [
        {
          "attributes": {
            "NORMAL": 7,
            "POSITION": 6
          },
          "indices": 8,
          "material": 12,
          "mode": 4
        }
      ]
    },
    {
      "name": "Cylinder.013_0",
      "primitives": [
        {
          "attributes": {
            "NORMAL": 10,
            "POSITION": 9
          },
          "indices": 11,
          "material": 5,
          "mode": 4
        }
      ]
    },
    {
      "name": "Cylinder.013_1",
      "primitives": [
        {
          "attributes": {
            "NORMAL": 13,
            "POSITION": 12
          },
          "indices": 14,
          "material": 6,
          "mode": 4
        }
      ]
    },
    {
      "name": "Cylinder.013_2",
      "primitives": [
        {
          "attributes": {
            "NORMAL": 16,
            "POSITION": 15
          },
          "indices": 17,
          "material": 7,
          "mode": 4
        }
      ]
    },
    {
      "name": "Cylinder.013_3",
      "primitives": [
        {
          "attributes": {
            "NORMAL": 19,
            "POSITION": 18
          },
          "indices": 20,
          "material": 8,
          "mode": 4
        }
      ]
    },
    {
      "name": "Cylinder.013_4",
      "primitives": [
        {
          "attributes": {
            "NORMAL": 22,
            "POSITION": 21
          },
          "indices": 23,
          "material": 9,
          "mode": 4
        }
      ]
    },
    {
      "name": "Cylinder.012_0",
      "primitives": [
        {
          "attributes": {
            "NORMAL": 25,
            "POSITION": 24
          },
          "indices": 26,
          "material": 0,
          "mode": 4
        }
      ]
    },
    {
      "name": "Cylinder.012_1",
      "primitives": [
        {
          "attributes": {
            "NORMAL": 28,
            "POSITION": 27
          },
          "indices": 29,
          "material": 1,
          "mode": 4
        }
      ]
    },
    {
      "name": "Cylinder.012_2",
      "primitives": [
        {
          "attributes": {
            "NORMAL": 31,
            "POSITION": 30
          },
          "indices": 32,
          "material": 2,
          "mode": 4
        }
      ]
    },
    {
      "name": "Cylinder.012_3",
      "primitives": [
        {
          "attributes": {
            "NORMAL": 34,
            "POSITION": 33
          },
          "indices": 35,
          "material": 3,
          "mode": 4
        }
      ]
    },
    {
      "name": "Cylinder.012_4",
      "primitives": [
        {
          "attributes": {
            "NORMAL": 37,
            "POSITION": 36
          },
          "indices": 38,
          "material": 4,
          "mode": 4
        }
      ]
    }
  ],
  "nodes": [
    {
      "children": [
        1
      ],
      "name": "RootNode (gltf orientation matrix)",
      "rotation": [
        -0.70710678118654746,
        -0,
        -0,
        0.70710678118654757
      ]
    },
    {
      "children": [
        2
      ],
      "name": "RootNode (model correction matrix)"
    },
    {
      "children": [
        3,
        7,
        13
      ],
      "name": "Root"
    },
    {
      "children": [
        4,
        5,
        6
      ],
      "matrix": [
        3.3736999999999999,
        0,
        0,
        0,
        0,
        3.3736999999999999,
        0,
        0,
        0,
        0,
        3.3736999999999999,
        0,
        -13.28013,
        -0.52034000000000002,
        0,
        1
      ],
      "name": "Cylinder.008"
    },
    {
      "mesh": 0,
      "name": "Cylinder.008_0"
    },
    {
      "mesh": 1,
      "name": "Cylinder.008_1"
    },
    {
      "mesh": 2,
      "name": "Cylinder.008_2"
    },
    {
      "children": [
        8,
        9,
        10,
        11,
        12
      ],
      "matrix": [
        3.3736999999999999,
        0,
        0,
        0,
        0,
        3.3736999999999999,
        0,
        0,
        0,
        0,
        3.3736999999999999,
        0,
        14.480430000000002,
        0.047670000000000011,
        0,
        1
      ],
      "name": "Cylinder.013"
    },
    {
      "mesh": 3,
      "name": "Cylinder.013_0"
    },
    {
      "mesh": 4,
      "name": "Cylinder.013_1"
    },
    {
      "mesh": 5,
      "name": "Cylinder.013_2"
    },
    {
      "mesh": 6,
      "name": "Cylinder.013_3"
    },
    {
      "mesh": 7,
      "name": "Cylinder.013_4"
    },
    {
      "children": [
        14,
        15,
        16,
        17,
        18
      ],
      "matrix": [
        3.3736999999999999,
        0,
        0,
        0,
        0,
        3.3736999999999999,
        0,
        0,
        0,
        0,
        3.3736999999999999,
        0,
        0.23391000000000003,
        -0.40618000000000004,
        0,
        1
      ],
      "name": "Cylinder.012"
    },
    {
      "mesh": 8,
      "name": "Cylinder.012_0"
    },
    {
      "mesh": 9,
      "name": "Cylinder.012_1"
    },
    {
      "mesh": 10,
      "name": "Cylinder.012_2"
    },
    {
      "mesh": 11,
      "name": "Cylinder.012_3"
    },
    {
      "mesh": 12,
      "name": "Cylinder.012_4"
    }
  ],
  "scene": 0,
  "scenes": [
    {
      "name": "OSG_Scene",
      "nodes": [
        0
      ]
    }
  ]
}

